<svg viewBox="0 0 1024 1024" xmlns="http://www.w3.org/2000/svg" width="200" height="200" fill="currentColor">
  <path d="M512 64L128 192v384c0 211.31 122.69 405.06 384 512 261.31-106.94 384-300.69 384-512V192L512 64zm0 64.5L832 256v352c0 196.38-113.5 376.19-320 477.5C205.5 984.19 92 804.38 92 608V256l420-127.5z"/>
  <path d="M512 192c-176.73 0-320 143.27-320 320s143.27 320 320 320 320-143.27 320-320-143.27-320-320-320zm0 64c141.38 0 256 114.62 256 256s-114.62 256-256 256-256-114.62-256-256 114.62-256 256-256z"/>
  <path d="M512 320c-105.87 0-192 86.13-192 192s86.13 192 192 192 192-86.13 192-192-86.13-192-192-192zm0 64c70.58 0 128 57.42 128 128s-57.42 128-128 128-128-57.42-128-128 57.42-128 128-128z"/>
</svg>

