<svg viewBox="0 0 1024 1024" xmlns="http://www.w3.org/2000/svg" width="200" height="200" fill="currentColor">
  <path d="M800 128H352c-35.2 0-64 28.8-64 64v64H224c-35.2 0-64 28.8-64 64v512c0 35.2 28.8 64 64 64h576c35.2 0 64-28.8 64-64V192c0-35.2-28.8-64-64-64zm0 64v640H224V320h64v448c0 35.2 28.8 64 64 64h384V192h64zM352 256V192h384v64H352z"/>
  <path d="M368 480h160c17.7 0 32-14.3 32-32s-14.3-32-32-32H368c-17.7 0-32 14.3-32 32s14.3 32 32 32zm0 192h160c17.7 0 32-14.3 32-32s-14.3-32-32-32H368c-17.7 0-32 14.3-32 32s14.3 32 32 32z"/>
  <path d="M688.3 409.4l-96 96c-12.5 12.5-32.8 12.5-45.3 0l-32-32c-12.5-12.5-12.5-32.8 0-45.3s32.8-12.5 45.3 0l9.4 9.4 73.4-73.4c12.5-12.5 32.8-12.5 45.3 0s12.4 32.8-0.1 45.3z"/>
</svg>

